# xmcd CD database file
#
# Track frame offsets:
#	150
#	12921
#	28639
#	43390
#	55004
#	69041
#	87187
#	102708
#	119083
#	135759
#	147511
#
# Disc length: 2163 seconds
#
# Revision: 0
# Processed by: cddbd v1.5.1PL0 Copyright (c) Steve Scherf et al.
# Submitted via: CDex 1.51
#
DISCID=9608710b
DTITLE=ketchup - Sweet Dream is Over
DYEAR=2004
DGENRE=New Age
TTITLE0=a boy
TTITLE1=dreamer
TTITLE2=sleepy life
TTITLE3=sweet dream is over
TTITLE4=game of love vol. 4
TTITLE5=love season
TTITLE6=YOU
TTITLE7=right time
TTITLE8=heroes
TTITLE9=penny
TTITLE10=wonders of the world
EXTD=YEAR: 2004
EXTT0=
EXTT1=
EXTT2=
EXTT3=
EXTT4=
EXTT5=
EXTT6=
EXTT7=
EXTT8=
EXTT9=
EXTT10=
PLAYORDER=
